<svg xmlns="http://www.w3.org/2000/svg" viewBox="0 0 618 109"><g fill="none" fill-rule="evenodd"><g fill-rule="nonzero"><path fill="#092F56" d="M191.004 36.083h-39.762L130.366 66.71a11.66 11.66 0 0 1-9.633 5.093H29.658l-6.202 9.096c-7.919 11.614.4 27.351 14.454 27.351h103.243c3.856 0 7.464-1.906 9.637-5.093l42.623-62.514c1.32-1.936-.066-4.559-2.409-4.559"/><path fill="#8FD7F8" d="M79.438 36.447h71.804l21.736-31.889C174.298 2.623 172.911 0 170.57 0H59.036a48.094 48.094 0 0 0-39.74 21.008L3.07 44.815c-7.916 11.613.4 27.351 14.45 27.351h12.14l10.03-14.71a48.11 48.11 0 0 1 39.75-21.009"/><path fill="#2EAAE1" d="M151.5 36.082H79.446c-15.908 0-30.797 8.23-39.758 21.373L29.415 72.166h91.318c3.856 0 7.462-1.906 9.634-5.093l21.132-30.99z"/></g><path fill="#FFF" d="M246.028 85.41c10.25 0 17.63-4.674 22.714-10.988l-5.33-4.51c-4.1 5.084-9.84 8.692-17.384 8.692-12.3 0-21.566-8.61-21.566-22.468 0-13.53 8.282-23.124 21.566-23.124 6.724 0 12.956 3.198 17.384 8.774l5.33-4.428c-6.314-7.872-14.678-11.152-22.714-11.152-18.696 0-29.028 13.366-29.028 29.93 0 19.024 13.284 29.274 29.028 29.274zm33.056-.41h6.642V24.648h-6.642V85zm55.104-20.582c0 1.066-.164 2.46-.164 2.706h-30.75c.902 7.462 6.15 12.3 13.366 12.3 5.002 0 8.774-2.296 11.234-5.412l4.674 4.018c-3.444 4.428-8.856 7.462-16.154 7.462-11.316 0-19.844-8.282-19.844-20.418 0-12.054 8.282-20.5 19.106-20.5 11.152 0 18.532 8.364 18.532 19.844zm-18.204-13.694c-6.232 0-11.234 4.1-12.464 10.906h24.108c-1.066-6.56-5.248-10.906-11.644-10.906zm59.286-5.658h6.642V85h-6.396v-6.314c-3.28 4.264-8.2 6.806-14.022 6.806-11.07 0-19.598-7.954-19.598-20.172 0-11.808 8.2-20.746 19.516-20.746 5.494 0 10.414 2.296 13.776 6.478l.082-5.986zm-13.202 34.358c7.216 0 13.448-5.658 13.448-14.104 0-8.2-5.658-14.596-13.366-14.596-7.544 0-13.53 5.74-13.53 14.596 0 8.036 5.33 14.104 13.448 14.104zm51.824-34.85c-5.412 0-10.086 2.788-13.038 7.544h-.082v-7.052h-6.642V85h6.642V65.73c0-8.036 4.592-13.858 12.136-13.858.656 0 1.722.082 2.624.164v-7.38c-.41-.082-.984-.082-1.64-.082zm24.502 40.918c7.134 0 13.12-2.952 16.482-6.724l-4.592-4.1c-2.46 2.706-6.642 4.756-11.316 4.756-8.036 0-13.612-5.822-13.612-14.35 0-8.446 5.576-14.35 13.612-14.35 4.756 0 8.692 1.968 11.152 5.002l4.592-4.018c-3.936-4.674-10.086-7.134-16.072-7.134-11.726 0-20.008 8.446-20.008 20.5 0 12.136 8.282 20.418 19.762 20.418zm43.706 0c-12.464 0-20.664-8.938-20.664-20.418 0-11.48 8.2-20.5 20.664-20.5 11.726 0 20.5 8.364 20.5 20.5s-8.774 20.418-20.5 20.418zm0-6.068c7.708 0 13.776-5.904 13.776-14.35 0-8.528-6.068-14.35-13.776-14.35-8.364 0-13.94 6.396-13.94 14.35s5.658 14.35 13.94 14.35zm56.154-34.358L526.2 76.554h-.246l-12.3-31.488h-7.134L522.838 85h6.396l16.236-39.934h-7.216zm47.462 19.352c0 1.066-.164 2.46-.164 2.706h-30.75c.902 7.462 6.15 12.3 13.366 12.3 5.002 0 8.774-2.296 11.234-5.412l4.674 4.018c-3.444 4.428-8.856 7.462-16.154 7.462-11.316 0-19.844-8.282-19.844-20.418 0-12.054 8.282-20.5 19.106-20.5 11.152 0 18.532 8.364 18.532 19.844zm-18.204-13.694c-6.232 0-11.234 4.1-12.464 10.906h24.108c-1.066-6.56-5.248-10.906-11.644-10.906zm48.052-6.15c-5.412 0-10.086 2.788-13.038 7.544h-.082v-7.052h-6.642V85h6.642V65.73c0-8.036 4.592-13.858 12.136-13.858.656 0 1.722.082 2.624.164v-7.38c-.41-.082-.984-.082-1.64-.082z"/></g></svg>